<svg width="20" height="20" viewBox="0 0 20 20" fill="none" xmlns="http://www.w3.org/2000/svg">
<path fill-rule="evenodd" clip-rule="evenodd" d="M8.16923 12.7108C8.68962 13.0636 9.32385 13.2769 9.99874 13.2769C11.7876 13.2769 13.2431 11.8083 13.2431 10.0034C13.2431 9.32245 13.0317 8.68252 12.682 8.15745L11.7957 9.05171C11.9421 9.33065 12.0234 9.65882 12.0234 10.0034C12.0234 11.1274 11.1127 12.0463 9.99874 12.0463C9.65723 12.0463 9.33198 11.9642 9.05553 11.8165L8.16923 12.7108ZM15.3572 5.45825C16.5362 6.54121 17.5363 8.00157 18.2844 9.75728C18.3494 9.91316 18.3494 10.0936 18.2844 10.2413C16.5443 14.327 13.4463 16.7719 9.99874 16.7719H9.99061C8.4213 16.7719 6.91703 16.255 5.59166 15.3115L4.01421 16.9032C3.89224 17.0262 3.73775 17.0837 3.58326 17.0837C3.42877 17.0837 3.26615 17.0262 3.15231 16.9032C2.94903 16.6981 2.91651 16.3699 3.07913 16.132L3.10352 16.0992L15.1295 3.96508C15.1458 3.94868 15.162 3.93227 15.1702 3.91586L15.1702 3.91585C15.1864 3.89945 15.2027 3.88304 15.2108 3.86663L15.9751 3.09543C16.2191 2.85751 16.6012 2.85751 16.837 3.09543C17.081 3.33336 17.081 3.72716 16.837 3.96508L15.3572 5.45825ZM6.74847 10.0066C6.74847 10.2199 6.77287 10.4332 6.80539 10.6301L3.79687 13.6657C2.98375 12.714 2.27634 11.5654 1.71529 10.2445C1.65024 10.0968 1.65024 9.91636 1.71529 9.76047C3.45536 5.67476 6.55333 3.23811 9.9928 3.23811H10.0009C11.1637 3.23811 12.2939 3.51705 13.3347 4.04212L10.6189 6.78234C10.4238 6.74952 10.2123 6.72491 10.0009 6.72491C8.20395 6.72491 6.74847 8.19347 6.74847 10.0066Z" fill="#9E9E9E"/>
</svg>
