<svg width="20" height="20" viewBox="0 0 20 20" fill="none" xmlns="http://www.w3.org/2000/svg">
<path fill-rule="evenodd" clip-rule="evenodd" d="M14.6021 6.16366V7.44145C16.0374 7.88946 17.0832 9.18877 17.0832 10.7407V14.8547C17.0832 16.776 15.4904 18.3337 13.5267 18.3337H6.47384C4.5093 18.3337 2.9165 16.776 2.9165 14.8547V10.7407C2.9165 9.18877 3.96313 7.88946 5.39758 7.44145V6.16366C5.40604 3.67931 7.46373 1.66699 9.98714 1.66699C12.5444 1.66699 14.6021 3.67931 14.6021 6.16366ZM10.0041 3.1162C11.723 3.1162 13.1202 4.48259 13.1202 6.16366V7.26175H6.87944V6.1471C6.88791 4.47431 8.2851 3.1162 10.0041 3.1162ZM10.7408 13.7128C10.7408 14.1185 10.4105 14.4415 9.9956 14.4415C9.58915 14.4415 9.2589 14.1185 9.2589 13.7128V11.8744C9.2589 11.4769 9.58915 11.1539 9.9956 11.1539C10.4105 11.1539 10.7408 11.4769 10.7408 11.8744V13.7128Z" fill="#9E9E9E"/>
</svg>
